# OBJ File exported by EasyPolyMap
v -122.78082 6.6874013 405.89117
v -116.09565 -10 421.62543
v -103.21837 -10 418.21582
v -122.78082 6.6874013 405.89117
v -103.21837 -10 418.21582
v -113.32665 7.8255925 404.52518
v -122.78082 6.6874013 405.89117
v -113.32665 7.8255925 404.52518
v -121.94031 6.7972732 401.86029
v -121.94031 6.7972732 401.86029
v -113.32665 7.8255925 404.52518
v -119.67027 7.152781 401.05664
v -124.83887 6.7648935 380.1283
v -115.73309 8.2796354 383.50775
v -117.48779 7.9065995 372.94281
v -124.83887 6.7648935 380.1283
v -121.24081 7.4086895 385.79764
v -115.73309 8.2796354 383.50775
v -119.67027 7.152781 401.05664
v -113.32665 7.8255925 404.52518
v -117.52109 7.4603066 401.04379
v -113.32665 7.8255925 404.52518
v -103.21837 -10 418.21582
v -100.39032 -10 415.3761
v -112.44471 8.2111301 400.57721
v -110.48997 8.6682577 397.60565
v -113.69837 8.4950314 391.32339
v -121.24081 7.4086895 385.79764
v -113.69837 8.4950314 391.32339
v -115.73309 8.2796354 383.50775
v -117.52109 7.4603066 401.04379
v -113.32665 7.8255925 404.52518
v -112.44471 8.2111301 400.57721
v -113.32665 7.8255925 404.52518
v -108.20929 8.6838102 402.16119
v -112.44471 8.2111301 400.57721
v -113.32665 7.8255925 404.52518
v -99.358131 -10 409.19409
v -108.20929 8.6838102 402.16119
v -113.32665 7.8255925 404.52518
v -100.39032 -10 415.3761
v -99.358131 -10 409.19409
v -115.73309 8.2796354 383.50775
v -113.69837 8.4950314 391.32339
v -107.35325 9.3836269 391.78833
v -115.73309 8.2796354 383.50775
v -107.35325 9.3836269 391.78833
v -104.73148 9.9165325 387.50156
v -112.44471 8.2111301 400.57721
v -108.20929 8.6838102 402.16119
v -110.48997 8.6682577 397.60565
v -113.69837 8.4950314 391.32339
v -110.48997 8.6682577 397.60565
v -109.68655 8.9147615 395.03815
v -115.73309 8.2796354 383.50775
v -104.64461 9.9542513 386.67917
v -104.74094 10.10558 374.70636
v -115.73309 8.2796354 383.50775
v -104.73148 9.9165325 387.50156
v -104.64461 9.9542513 386.67917
v -113.69837 8.4950314 391.32339
v -109.68655 8.9147615 395.03815
v -107.35325 9.3836269 391.78833
v -110.48997 8.6682577 397.60565
v -108.20929 8.6838102 402.16119
v -109.68655 8.9147615 395.03815
v -108.20929 8.6838102 402.16119
v -95.545586 -10 404.70639
v -109.68655 8.9147615 395.03815
v -108.20929 8.6838102 402.16119
v -99.358131 -10 409.19409
v -95.545586 -10 404.70639
v -109.68655 8.9147615 395.03815
v -95.545586 -10 404.70639
v -107.35325 9.3836269 391.78833
v -107.35325 9.3836269 391.78833
v -95.545586 -10 404.70639
v -94.319466 -10 394.48059
v -107.35325 9.3836269 391.78833
v -94.319466 -10 394.48059
v -104.73148 9.9165325 387.50156
v -104.73148 9.9165325 387.50156
v -101.99317 10.443249 383.32358
v -104.64461 9.9542513 386.67917
v -104.73148 9.9165325 387.50156
v -94.319466 -10 394.48059
v -101.99317 10.443249 383.32358
v -101.99317 10.443249 383.32358
v -94.319466 -10 394.48059
v -91.174347 -10 389.42993
v -101.99317 10.443249 383.32358
v -95.457893 11.4699 379.97964
v -98.220512 11.133301 377.77161
v -101.99317 10.443249 383.32358
v -91.174347 -10 389.42993
v -95.457893 11.4699 379.97964
v -98.220512 11.133301 377.77161
v -95.457893 11.4699 379.97964
v -95.614624 11.559458 373.57309
v -95.457893 11.4699 379.97964
v -88.659821 12.282941 371.86526
v -94.001526 11.799823 372.68057
v -95.457893 11.4699 379.97964
v -83.574501 -10 377.22949
v -88.659821 12.282941 371.86526
v -95.457893 11.4699 379.97964
v -91.174347 -10 389.42993
v -83.574501 -10 377.22949
vn 0.17972519 0.71200925 0.6787796
vn 0.17972519 0.71200925 0.6787796
vn 0.17972519 0.71200925 0.6787796
vn 0.038079768 0.62216473 0.78195983
vn 0.038079768 0.62216473 0.78195983
vn 0.038079768 0.62216473 0.78195983
vn -0.11921297 0.99286628 0.0022049155
vn -0.11921297 0.99286628 0.0022049155
vn -0.11921297 0.99286628 0.0022049155
vn -0.13527337 0.98925203 0.055511232
vn -0.13527337 0.98925203 0.055511232
vn -0.13527337 0.98925203 0.055511232
vn -0.1611713 0.98689342 -0.0080775972
vn -0.1611713 0.98689342 -0.0080775972
vn -0.1611713 0.98689342 -0.0080775972
vn -0.16036211 0.9870044 -0.010307741
vn -0.16036211 0.9870044 -0.010307741
vn -0.16036211 0.9870044 -0.010307741
vn -0.14094858 0.98780304 0.066171706
vn -0.14094858 0.98780304 0.066171706
vn -0.14094858 0.98780304 0.066171706
vn 0.51530886 0.68636143 0.51319075
vn 0.51530886 0.68636143 0.51319075
vn 0.51530886 0.68636143 0.51319075
vn -0.15320779 0.98687541 0.051032566
vn -0.15320779 0.98687541 0.051032566
vn -0.15320779 0.98687541 0.051032566
vn -0.15125446 0.98842031 0.012136919
vn -0.15125446 0.98842031 0.012136919
vn -0.15125446 0.98842031 0.012136919
vn -0.14013775 0.9879846 0.065175764
vn -0.14013775 0.9879846 0.065175764
vn -0.14013775 0.9879846 0.065175764
vn -0.13514416 0.9886018 0.066351555
vn -0.13514416 0.9886018 0.066351555
vn -0.13514416 0.9886018 0.066351555
vn 0.30782849 0.45944366 0.83315855
vn 0.30782849 0.45944366 0.83315855
vn 0.30782849 0.45944366 0.83315855
vn 0.76418471 0.63225126 0.12759329
vn 0.76418471 0.63225126 0.12759329
vn 0.76418471 0.63225126 0.12759329
vn -0.13933042 0.99020523 0.008983437
vn -0.13933042 0.99020523 0.008983437
vn -0.13933042 0.99020523 0.008983437
vn -0.15666649 0.98728478 0.026916651
vn -0.15666649 0.98728478 0.026916651
vn -0.15666649 0.98728478 0.026916651
vn -0.13423187 0.98889244 0.063825525
vn -0.13423187 0.98889244 0.063825525
vn -0.13423187 0.98889244 0.063825525
vn -0.14821173 0.98776788 0.04845643
vn -0.14821173 0.98776788 0.04845643
vn -0.14821173 0.98776788 0.04845643
vn -0.15315147 0.9881075 0.013721371
vn -0.15315147 0.9881075 0.013721371
vn -0.15315147 0.9881075 0.013721371
vn -0.15727821 0.98713839 0.028661758
vn -0.15727821 0.98713839 0.028661758
vn -0.15727821 0.98713839 0.028661758
vn -0.14152543 0.98908156 0.041086979
vn -0.14152543 0.98908156 0.041086979
vn -0.14152543 0.98908156 0.041086979
vn -0.12110645 0.99098736 0.057247296
vn -0.12110645 0.99098736 0.057247296
vn -0.12110645 0.99098736 0.057247296
vn 0.8275106 0.53988445 -0.15411362
vn 0.8275106 0.53988445 -0.15411362
vn 0.8275106 0.53988445 -0.15411362
vn 0.6521315 0.51747966 0.554021
vn 0.6521315 0.51747966 0.554021
vn 0.6521315 0.51747966 0.554021
vn 0.55529982 0.66821998 0.49510017
vn 0.55529982 0.66821998 0.49510017
vn 0.55529982 0.66821998 0.49510017
vn 0.81945497 0.56465852 0.098256364
vn 0.81945497 0.56465852 0.098256364
vn 0.81945497 0.56465852 0.098256364
vn 0.69099742 0.53252774 0.4888117
vn 0.69099742 0.53252774 0.4888117
vn 0.69099742 0.53252774 0.4888117
vn -0.14429039 0.98907679 0.030122656
vn -0.14429039 0.98907679 0.030122656
vn -0.14429039 0.98907679 0.030122656
vn 0.67585558 0.53205073 0.5100404
vn 0.67585558 0.53205073 0.5100404
vn 0.67585558 0.53205073 0.5100404
vn 0.72560859 0.51896685 0.4518469
vn 0.72560859 0.51896685 0.4518469
vn 0.72560859 0.51896685 0.4518469
vn -0.14183366 0.98953271 0.026610186
vn -0.14183366 0.98953271 0.026610186
vn -0.14183366 0.98953271 0.026610186
vn 0.35504186 0.43505067 0.82745165
vn 0.35504186 0.43505067 0.82745165
vn 0.35504186 0.43505067 0.82745165
vn -0.13441494 0.99077696 0.017138474
vn -0.13441494 0.99077696 0.017138474
vn -0.13441494 0.99077696 0.017138474
vn -0.085816301 0.99592048 0.027893502
vn -0.085816301 0.99592048 0.027893502
vn -0.085816301 0.99592048 0.027893502
vn 0.7121374 0.31371266 0.62804836
vn 0.7121374 0.31371266 0.62804836
vn 0.7121374 0.31371266 0.62804836
vn 0.78751987 0.37304771 0.49055859
vn 0.78751987 0.37304771 0.49055859
vn 0.78751987 0.37304771 0.49055859
vt 0.4375 0.1875
vt 0.4375 0.1875
vt 0.4375 0.1875
vt 0.4375 0.1875
vt 0.4375 0.1875
vt 0.4375 0.1875
vt 0.4375 0.1875
vt 0.4375 0.1875
vt 0.4375 0.1875
vt 0.4375 0.1875
vt 0.4375 0.1875
vt 0.4375 0.1875
vt 0.0625 0.0625
vt 0.0625 0.0625
vt 0.0625 0.0625
vt 0.0625 0.0625
vt 0.0625 0.0625
vt 0.0625 0.0625
vt 0.4375 0.1875
vt 0.4375 0.1875
vt 0.4375 0.1875
vt 0.4375 0.1875
vt 0.4375 0.1875
vt 0.4375 0.1875
vt 0.0625 0.0625
vt 0.0625 0.0625
vt 0.0625 0.0625
vt 0.0625 0.0625
vt 0.0625 0.0625
vt 0.0625 0.0625
vt 0.4375 0.1875
vt 0.4375 0.1875
vt 0.4375 0.1875
vt 0.4375 0.1875
vt 0.4375 0.1875
vt 0.4375 0.1875
vt 0.4375 0.1875
vt 0.4375 0.1875
vt 0.4375 0.1875
vt 0.4375 0.1875
vt 0.4375 0.1875
vt 0.4375 0.1875
vt 0.4375 0.1875
vt 0.4375 0.1875
vt 0.4375 0.1875
vt 0.4375 0.1875
vt 0.4375 0.1875
vt 0.4375 0.1875
vt 0.4375 0.1875
vt 0.4375 0.1875
vt 0.4375 0.1875
vt 0.4375 0.1875
vt 0.4375 0.1875
vt 0.4375 0.1875
vt 0.0625 0.0625
vt 0.0625 0.0625
vt 0.0625 0.0625
vt 0.4375 0.1875
vt 0.4375 0.1875
vt 0.4375 0.1875
vt 0.4375 0.1875
vt 0.4375 0.1875
vt 0.4375 0.1875
vt 0.4375 0.1875
vt 0.4375 0.1875
vt 0.4375 0.1875
vt 0.4375 0.1875
vt 0.4375 0.1875
vt 0.4375 0.1875
vt 0.4375 0.1875
vt 0.4375 0.1875
vt 0.4375 0.1875
vt 0.4375 0.1875
vt 0.4375 0.1875
vt 0.4375 0.1875
vt 0.4375 0.1875
vt 0.4375 0.1875
vt 0.4375 0.1875
vt 0.4375 0.1875
vt 0.4375 0.1875
vt 0.4375 0.1875
vt 0.4375 0.1875
vt 0.4375 0.1875
vt 0.4375 0.1875
vt 0.4375 0.1875
vt 0.4375 0.1875
vt 0.4375 0.1875
vt 0.4375 0.1875
vt 0.4375 0.1875
vt 0.4375 0.1875
vt 0.4375 0.1875
vt 0.4375 0.1875
vt 0.4375 0.1875
vt 0.4375 0.1875
vt 0.4375 0.1875
vt 0.4375 0.1875
vt 0.4375 0.1875
vt 0.4375 0.1875
vt 0.4375 0.1875
vt 0.4375 0.1875
vt 0.4375 0.1875
vt 0.4375 0.1875
vt 0.4375 0.1875
vt 0.4375 0.1875
vt 0.4375 0.1875
vt 0.4375 0.1875
vt 0.4375 0.1875
vt 0.4375 0.1875
g Island1
f 1/1/1 2/2/2 3/3/3
f 4/4/4 5/5/5 6/6/6
f 7/7/7 8/8/8 9/9/9
f 10/10/10 11/11/11 12/12/12
f 13/13/13 14/14/14 15/15/15
f 16/16/16 17/17/17 18/18/18
f 19/19/19 20/20/20 21/21/21
f 22/22/22 23/23/23 24/24/24
f 25/25/25 26/26/26 27/27/27
f 28/28/28 29/29/29 30/30/30
f 31/31/31 32/32/32 33/33/33
f 34/34/34 35/35/35 36/36/36
f 37/37/37 38/38/38 39/39/39
f 40/40/40 41/41/41 42/42/42
f 43/43/43 44/44/44 45/45/45
f 46/46/46 47/47/47 48/48/48
f 49/49/49 50/50/50 51/51/51
f 52/52/52 53/53/53 54/54/54
f 55/55/55 56/56/56 57/57/57
f 58/58/58 59/59/59 60/60/60
f 61/61/61 62/62/62 63/63/63
f 64/64/64 65/65/65 66/66/66
f 67/67/67 68/68/68 69/69/69
f 70/70/70 71/71/71 72/72/72
f 73/73/73 74/74/74 75/75/75
f 76/76/76 77/77/77 78/78/78
f 79/79/79 80/80/80 81/81/81
f 82/82/82 83/83/83 84/84/84
f 85/85/85 86/86/86 87/87/87
f 88/88/88 89/89/89 90/90/90
f 91/91/91 92/92/92 93/93/93
f 94/94/94 95/95/95 96/96/96
f 97/97/97 98/98/98 99/99/99
f 100/100/100 101/101/101 102/102/102
f 103/103/103 104/104/104 105/105/105
f 106/106/106 107/107/107 108/108/108
