# OBJ File exported by EasyPolyMap
v -385.35904 -10 379.65308
v -377.36777 9.4843559 376.58511
v -379.18896 9.5201998 373.47018
v -385.35904 -10 379.65308
v -381.06256 -10 385.01263
v -377.36777 9.4843559 376.58511
v -393.14728 -10 418.92386
v -383.73871 -10 431.1301
v -376.87988 9.681756 424.93976
v -393.14728 -10 418.92386
v -374.3074 10.061413 418.36176
v -380.05338 -10 409.37738
v -393.14728 -10 418.92386
v -376.87988 9.681756 424.93976
v -374.3074 10.061413 418.36176
v -381.06256 -10 385.01263
v -374.63852 9.4690533 382.7334
v -377.36777 9.4843559 376.58511
v -381.06256 -10 385.01263
v -372.60904 9.69384 388.73743
v -374.63852 9.4690533 382.7334
v -381.06256 -10 385.01263
v -379.86365 -10 394.89227
v -372.60904 9.69384 388.73743
v -377.36777 9.4843559 376.58511
v -374.63852 9.4690533 382.7334
v -373.68652 9.2952843 376.48587
v -379.86365 -10 394.89227
v -370.87463 9.9322929 394.61322
v -372.60904 9.69384 388.73743
v -379.86365 -10 394.89227
v -378.41638 -10 400.0459
v -370.87463 9.9322929 394.61322
v -387.44745 -10 446.37411
v -370.76086 9.1481094 441.55319
v -386.37863 -10 436.35739
v -387.44745 -10 446.37411
v -385.26151 -10 449.04404
v -370.76086 9.1481094 441.55319
v -377.36777 9.4843559 376.58511
v -373.68652 9.2952843 376.48587
v -375.23825 9.3138962 373.87009
v -378.41638 -10 400.0459
v -369.2923 10.195704 399.51678
v -370.87463 9.9322929 394.61322
v -378.41638 -10 400.0459
v -380.05338 -10 409.37738
v -370.97888 10.329221 408.23517
v -378.41638 -10 400.0459
v -368.90314 10.291304 401.55353
v -369.2923 10.195704 399.51678
v -378.41638 -10 400.0459
v -370.97888 10.329221 408.23517
v -368.90314 10.291304 401.55353
v -380.05338 -10 409.37738
v -374.3074 10.061413 418.36176
v -371.72797 10.304626 410.66037
v -380.05338 -10 409.37738
v -371.72797 10.304626 410.66037
v -370.97888 10.329221 408.23517
v -386.37863 -10 436.35739
v -375.19394 9.5075779 430.80042
v -383.73871 -10 431.1301
v -386.37863 -10 436.35739
v -370.76086 9.1481094 441.55319
v -375.19394 9.5075779 430.80042
v -385.26151 -10 449.04404
v -378.0105 -10 450.12381
v -370.76086 9.1481094 441.55319
v -383.73871 -10 431.1301
v -376.03287 9.58144 428.37512
v -376.87988 9.681756 424.93976
v -375.19394 9.5075779 430.80042
v -370.76086 9.1481094 441.55319
v -368.858 9.42976 436.25092
v -383.73871 -10 431.1301
v -375.19394 9.5075779 430.80042
v -376.03287 9.58144 428.37512
v -376.87988 9.681756 424.93976
v -372.31866 9.7919083 427.68616
v -371.849 10.115078 420.9166
v -376.87988 9.681756 424.93976
v -376.03287 9.58144 428.37512
v -372.31866 9.7919083 427.68616
v -378.0105 -10 450.12381
v -369.02246 9.0664501 444.5332
v -370.76086 9.1481094 441.55319
v -375.19394 9.5075779 430.80042
v -368.858 9.42976 436.25092
v -370.61163 9.6079006 432.54611
v -376.87988 9.681756 424.93976
v -371.849 10.115078 420.9166
v -374.3074 10.061413 418.36176
v -378.0105 -10 450.12381
v -373.24182 -10 457.68246
v -367.30664 8.9944105 447.45691
v -378.0105 -10 450.12381
v -367.30664 8.9944105 447.45691
v -369.02246 9.0664501 444.5332
v -376.03287 9.58144 428.37512
v -375.19394 9.5075779 430.80042
v -372.31866 9.7919083 427.68616
v -375.19394 9.5075779 430.80042
v -371.01373 9.6775303 431.00974
v -372.31866 9.7919083 427.68616
v -375.19394 9.5075779 430.80042
v -370.61163 9.6079006 432.54611
v -371.01373 9.6775303 431.00974
vn -0.79013532 0.39752486 0.46654055
vn -0.79013532 0.39752486 0.46654055
vn -0.79013532 0.39752486 0.46654055
vn -0.71975517 0.3860504 0.57699019
vn -0.71975517 0.3860504 0.57699019
vn -0.71975517 0.3860504 0.57699019
vn -0.71734476 0.42389321 0.5529294
vn -0.71734476 0.42389321 0.5529294
vn -0.71734476 0.42389321 0.5529294
vn -0.52040327 0.46871635 -0.71378255
vn -0.52040327 0.46871635 -0.71378255
vn -0.52040327 0.46871635 -0.71378255
vn -0.71100843 0.66099316 -0.23990613
vn -0.71100843 0.66099316 -0.23990613
vn -0.71100843 0.66099316 -0.23990613
vn -0.86262977 0.32955965 0.38374504
vn -0.86262977 0.32955965 0.38374504
vn -0.86262977 0.32955965 0.38374504
vn -0.89784527 0.33033609 0.29112178
vn -0.89784527 0.33033609 0.29112178
vn -0.89784527 0.33033609 0.29112178
vn -0.92065191 0.37405634 0.11172292
vn -0.92065191 0.37405634 0.11172292
vn -0.92065191 0.37405634 0.11172292
vn 0.050744042 0.9985106 -0.020040257
vn 0.050744042 0.9985106 -0.020040257
vn 0.050744042 0.9985106 -0.020040257
vn -0.88269013 0.40149292 0.24425736
vn -0.88269013 0.40149292 0.24425736
vn -0.88269013 0.40149292 0.24425736
vn -0.88188612 0.40117791 0.24765545
vn -0.88188612 0.40117791 0.24765545
vn -0.88188612 0.40117791 0.24765545
vn -0.76145166 0.6431095 -0.081249386
vn -0.76145166 0.6431095 -0.081249386
vn -0.76145166 0.6431095 -0.081249386
vn -0.59428126 0.64038545 0.48655552
vn -0.59428126 0.64038545 0.48655552
vn -0.59428126 0.64038545 0.48655552
vn 0.050662603 0.99845207 -0.022949701
vn 0.050662603 0.99845207 -0.022949701
vn 0.050662603 0.99845207 -0.022949701
vn -0.87704819 0.40308332 0.26136246
vn -0.87704819 0.40308332 0.26136246
vn -0.87704819 0.40308332 0.26136246
vn -0.9048664 0.39499256 -0.15873794
vn -0.9048664 0.39499256 -0.15873794
vn -0.9048664 0.39499256 -0.15873794
vn -0.89914125 0.41021368 0.15254439
vn -0.89914125 0.41021368 0.15254439
vn -0.89914125 0.41021368 0.15254439
vn -0.8637265 0.42505988 -0.27074075
vn -0.8637265 0.42505988 -0.27074075
vn -0.8637265 0.42505988 -0.27074075
vn -0.88098234 0.37911302 -0.28309628
vn -0.88098234 0.37911302 -0.28309628
vn -0.88098234 0.37911302 -0.28309628
vn -0.88491976 0.37986693 -0.26947752
vn -0.88491976 0.37986693 -0.26947752
vn -0.88491976 0.37986693 -0.26947752
vn -0.83347452 0.35796735 -0.42092684
vn -0.83347452 0.35796735 -0.42092684
vn -0.83347452 0.35796735 -0.42092684
vn -0.77240217 0.53869939 0.33644912
vn -0.77240217 0.53869939 0.33644912
vn -0.77240217 0.53869939 0.33644912
vn -0.13181973 0.44612449 0.88520986
vn -0.13181973 0.44612449 0.88520986
vn -0.13181973 0.44612449 0.88520986
vn -0.89370346 0.38427758 0.23157068
vn -0.89370346 0.38427758 0.23157068
vn -0.89370346 0.38427758 0.23157068
vn -0.025498463 0.99871051 0.043899503
vn -0.025498463 0.99871051 0.043899503
vn -0.025498463 0.99871051 0.043899503
vn -0.86828107 0.38560149 0.31208891
vn -0.86828107 0.38560149 0.31208891
vn -0.86828107 0.38560149 0.31208891
vn -0.050658416 0.99774122 0.044116184
vn -0.050658416 0.99774122 0.044116184
vn -0.050658416 0.99774122 0.044116184
vn -0.048907485 0.99795318 0.041199747
vn -0.048907485 0.99795318 0.041199747
vn -0.048907485 0.99795318 0.041199747
vn -0.74936622 0.48533389 0.45044553
vn -0.74936622 0.48533389 0.45044553
vn -0.74936622 0.48533389 0.45044553
vn -0.048875421 0.99627531 0.071039289
vn -0.048875421 0.99627531 0.071039289
vn -0.048875421 0.99627531 0.071039289
vn -0.058035292 0.99770474 0.034887601
vn -0.058035292 0.99770474 0.034887601
vn -0.058035292 0.99770474 0.034887601
vn -0.74058545 0.4829405 0.46722764
vn -0.74058545 0.4829405 0.46722764
vn -0.74058545 0.4829405 0.46722764
vn -0.74878919 0.48534083 0.45139664
vn -0.74878919 0.48534083 0.45139664
vn -0.74878919 0.48534083 0.45139664
vn -0.047832761 0.99775219 0.046932183
vn -0.047832761 0.99775219 0.046932183
vn -0.047832761 0.99775219 0.046932183
vn -0.043132491 0.9977529 0.051271833
vn -0.043132491 0.9977529 0.051271833
vn -0.043132491 0.9977529 0.051271833
vn -0.043385237 0.99745613 0.056560159
vn -0.043385237 0.99745613 0.056560159
vn -0.043385237 0.99745613 0.056560159
vt 0.4375 0.1875
vt 0.4375 0.1875
vt 0.4375 0.1875
vt 0.4375 0.1875
vt 0.4375 0.1875
vt 0.4375 0.1875
vt 0.4375 0.1875
vt 0.4375 0.1875
vt 0.4375 0.1875
vt 0.4375 0.1875
vt 0.4375 0.1875
vt 0.4375 0.1875
vt 0.4375 0.1875
vt 0.4375 0.1875
vt 0.4375 0.1875
vt 0.4375 0.1875
vt 0.4375 0.1875
vt 0.4375 0.1875
vt 0.4375 0.1875
vt 0.4375 0.1875
vt 0.4375 0.1875
vt 0.4375 0.1875
vt 0.4375 0.1875
vt 0.4375 0.1875
vt 0.4375 0.1875
vt 0.4375 0.1875
vt 0.4375 0.1875
vt 0.4375 0.1875
vt 0.4375 0.1875
vt 0.4375 0.1875
vt 0.4375 0.1875
vt 0.4375 0.1875
vt 0.4375 0.1875
vt 0.4375 0.1875
vt 0.4375 0.1875
vt 0.4375 0.1875
vt 0.4375 0.1875
vt 0.4375 0.1875
vt 0.4375 0.1875
vt 0.4375 0.1875
vt 0.4375 0.1875
vt 0.4375 0.1875
vt 0.4375 0.1875
vt 0.4375 0.1875
vt 0.4375 0.1875
vt 0.4375 0.1875
vt 0.4375 0.1875
vt 0.4375 0.1875
vt 0.4375 0.1875
vt 0.4375 0.1875
vt 0.4375 0.1875
vt 0.4375 0.1875
vt 0.4375 0.1875
vt 0.4375 0.1875
vt 0.4375 0.1875
vt 0.4375 0.1875
vt 0.4375 0.1875
vt 0.4375 0.1875
vt 0.4375 0.1875
vt 0.4375 0.1875
vt 0.4375 0.1875
vt 0.4375 0.1875
vt 0.4375 0.1875
vt 0.4375 0.1875
vt 0.4375 0.1875
vt 0.4375 0.1875
vt 0.4375 0.1875
vt 0.4375 0.1875
vt 0.4375 0.1875
vt 0.4375 0.1875
vt 0.4375 0.1875
vt 0.4375 0.1875
vt 0.4375 0.1875
vt 0.4375 0.1875
vt 0.4375 0.1875
vt 0.4375 0.1875
vt 0.4375 0.1875
vt 0.4375 0.1875
vt 0.4375 0.1875
vt 0.4375 0.1875
vt 0.4375 0.1875
vt 0.4375 0.1875
vt 0.4375 0.1875
vt 0.4375 0.1875
vt 0.4375 0.1875
vt 0.4375 0.1875
vt 0.4375 0.1875
vt 0.4375 0.1875
vt 0.4375 0.1875
vt 0.4375 0.1875
vt 0.4375 0.1875
vt 0.4375 0.1875
vt 0.4375 0.1875
vt 0.4375 0.1875
vt 0.4375 0.1875
vt 0.4375 0.1875
vt 0.4375 0.1875
vt 0.4375 0.1875
vt 0.4375 0.1875
vt 0.4375 0.1875
vt 0.4375 0.1875
vt 0.4375 0.1875
vt 0.4375 0.1875
vt 0.4375 0.1875
vt 0.4375 0.1875
vt 0.4375 0.1875
vt 0.4375 0.1875
vt 0.4375 0.1875
g Island1
f 1/1/1 2/2/2 3/3/3
f 4/4/4 5/5/5 6/6/6
f 7/7/7 8/8/8 9/9/9
f 10/10/10 11/11/11 12/12/12
f 13/13/13 14/14/14 15/15/15
f 16/16/16 17/17/17 18/18/18
f 19/19/19 20/20/20 21/21/21
f 22/22/22 23/23/23 24/24/24
f 25/25/25 26/26/26 27/27/27
f 28/28/28 29/29/29 30/30/30
f 31/31/31 32/32/32 33/33/33
f 34/34/34 35/35/35 36/36/36
f 37/37/37 38/38/38 39/39/39
f 40/40/40 41/41/41 42/42/42
f 43/43/43 44/44/44 45/45/45
f 46/46/46 47/47/47 48/48/48
f 49/49/49 50/50/50 51/51/51
f 52/52/52 53/53/53 54/54/54
f 55/55/55 56/56/56 57/57/57
f 58/58/58 59/59/59 60/60/60
f 61/61/61 62/62/62 63/63/63
f 64/64/64 65/65/65 66/66/66
f 67/67/67 68/68/68 69/69/69
f 70/70/70 71/71/71 72/72/72
f 73/73/73 74/74/74 75/75/75
f 76/76/76 77/77/77 78/78/78
f 79/79/79 80/80/80 81/81/81
f 82/82/82 83/83/83 84/84/84
f 85/85/85 86/86/86 87/87/87
f 88/88/88 89/89/89 90/90/90
f 91/91/91 92/92/92 93/93/93
f 94/94/94 95/95/95 96/96/96
f 97/97/97 98/98/98 99/99/99
f 100/100/100 101/101/101 102/102/102
f 103/103/103 104/104/104 105/105/105
f 106/106/106 107/107/107 108/108/108
