# OBJ File exported by EasyPolyMap
v -124.8504 -10 104.9971
v -123.02965 7.2612667 119.52176
v -115.19644 7.3619742 115.45383
v -124.8504 -10 104.9971
v -115.19644 7.3619742 115.45383
v -117.34004 -10 106.61713
v -113.75693 7.0363936 124.63565
v -106.99689 6.8447385 133.30904
v -110.34856 6.9717441 127.30847
v -124.56995 7.2361674 120.96174
v -120.27351 7.1151676 122.73837
v -123.02965 7.2612667 119.52176
v -124.56995 7.2361674 120.96174
v -120.9205 7.0723667 123.9156
v -120.27351 7.1151676 122.73837
v -123.02965 7.2612667 119.52176
v -115.28748 7.2131004 120.03628
v -115.19644 7.3619742 115.45383
v -123.02965 7.2612667 119.52176
v -120.27351 7.1151676 122.73837
v -115.28748 7.2131004 120.03628
v -120.9205 7.0723667 123.9156
v -113.75693 7.0363936 124.63565
v -120.27351 7.1151676 122.73837
v -120.27351 7.1151676 122.73837
v -113.75693 7.0363936 124.63565
v -115.28748 7.2131004 120.03628
v -117.34004 -10 106.61713
v -115.19644 7.3619742 115.45383
v -108.96871 7.4427409 114.18771
v -117.34004 -10 106.61713
v -106.84901 7.4859738 113.63013
v -109.24815 -10 106.18947
v -117.34004 -10 106.61713
v -108.96871 7.4427409 114.18771
v -106.84901 7.4859738 113.63013
v -115.28748 7.2131004 120.03628
v -110.61196 7.2883663 118.33352
v -115.19644 7.3619742 115.45383
v -115.28748 7.2131004 120.03628
v -113.75693 7.0363936 124.63565
v -110.61196 7.2883663 118.33352
v -115.19644 7.3619742 115.45383
v -110.61196 7.2883663 118.33352
v -108.96871 7.4427409 114.18771
v -113.75693 7.0363936 124.63565
v -110.34856 6.9717441 127.30847
v -110.61196 7.2883663 118.33352
v -110.61196 7.2883663 118.33352
v -107.61796 7.332859 117.79177
v -108.96871 7.4427409 114.18771
v -109.24815 -10 106.18947
v -106.84901 7.4859738 113.63013
v -100.93859 7.5784936 113.43485
v -107.61796 7.332859 117.79177
v -92.637123 7.0566249 135.83339
v -104.67401 7.380074 117.41335
v -109.24815 -10 106.18947
v -96.382858 7.6403456 113.9821
v -96.680794 -10 104.69595
v -109.24815 -10 106.18947
v -100.93859 7.5784936 113.43485
v -96.382858 7.6403456 113.9821
v -108.96871 7.4427409 114.18771
v -107.61796 7.332859 117.79177
v -104.67401 7.380074 117.41335
v -108.96871 7.4427409 114.18771
v -104.67401 7.380074 117.41335
v -106.84901 7.4859738 113.63013
v -104.67401 7.380074 117.41335
v -92.637123 7.0566249 135.83339
v -93.089638 7.3650789 124.85754
v -106.84901 7.4859738 113.63013
v -100.19297 7.4371948 117.68648
v -100.93859 7.5784936 113.43485
v -106.84901 7.4859738 113.63013
v -104.67401 7.380074 117.41335
v -100.19297 7.4371948 117.68648
v -104.67401 7.380074 117.41335
v -93.089638 7.3650789 124.85754
v -100.19297 7.4371948 117.68648
v -100.93859 7.5784936 113.43485
v -100.19297 7.4371948 117.68648
v -94.802597 7.5679302 117.05923
v -96.680794 -10 104.69595
v -96.382858 7.6403456 113.9821
v -90.828987 7.7472825 116.43531
v -100.93859 7.5784936 113.43485
v -94.802597 7.5679302 117.05923
v -96.382858 7.6403456 113.9821
v -100.19297 7.4371948 117.68648
v -93.089638 7.3650789 124.85754
v -94.802597 7.5679302 117.05923
v -96.680794 -10 104.69595
v -90.828987 7.7472825 116.43531
v -81.133209 -10 110.95862
v -96.382858 7.6403456 113.9821
v -94.802597 7.5679302 117.05923
v -90.828987 7.7472825 116.43531
v -93.089638 7.3650789 124.85754
v -92.637123 7.0566249 135.83339
v -90.889114 7.0754752 137.61128
v -94.802597 7.5679302 117.05923
v -93.089638 7.3650789 124.85754
v -87.58786 7.6386628 122.36608
v -93.089638 7.3650789 124.85754
v -90.889114 7.0754752 137.61128
v -81.029747 7.4412508 139.76833
v -94.802597 7.5679302 117.05923
v -87.58786 7.6386628 122.36608
v -90.828987 7.7472825 116.43531
v -93.089638 7.3650789 124.85754
v -82.420601 7.6852765 126.25253
v -87.58786 7.6386628 122.36608
v -93.089638 7.3650789 124.85754
v -81.029747 7.4412508 139.76833
v -82.420601 7.6852765 126.25253
v -90.828987 7.7472825 116.43531
v -80.834038 7.8723121 122.75365
v -81.133209 -10 110.95862
v -90.828987 7.7472825 116.43531
v -87.58786 7.6386628 122.36608
v -80.834038 7.8723121 122.75365
v -87.58786 7.6386628 122.36608
v -82.420601 7.6852765 126.25253
v -80.834038 7.8723121 122.75365
v -81.133209 -10 110.95862
v -80.834038 7.8723121 122.75365
v -79.042473 7.8850036 123.99299
v -81.133209 -10 110.95862
v -75.465851 7.9134455 126.16315
v -72.209389 -10 106.56986
v -81.133209 -10 110.95862
v -79.042473 7.8850036 123.99299
v -75.465851 7.9134455 126.16315
v -80.834038 7.8723121 122.75365
v -80.444809 7.7225966 127.01445
v -79.042473 7.8850036 123.99299
v -72.209389 -10 106.56986
v -71.521095 7.9720516 127.93952
v -66.149086 -10 111.91531
v -79.042473 7.8850036 123.99299
v -75.285782 7.7640076 129.96625
v -75.465851 7.9134455 126.16315
v -62.634346 -10 116.04892
v -60.364922 8.5216274 132.22906
v -53.069603 -10 119.80157
vn -0.36744404 0.62119395 -0.69217265
vn -0.36744404 0.62119395 -0.69217265
vn -0.36744404 0.62119395 -0.69217265
vn 0.19072081 0.42646611 -0.88416749
vn 0.19072081 0.42646611 -0.88416749
vn 0.19072081 0.42646611 -0.88416749
vn 0.0042163893 0.99981427 0.018806567
vn 0.0042163893 0.99981427 0.018806567
vn 0.0042163893 0.99981427 0.018806567
vn 0.014519347 0.99935162 0.032949865
vn 0.014519347 0.99935162 0.032949865
vn 0.014519347 0.99935162 0.032949865
vn 0.01068732 0.99905223 0.042196471
vn 0.01068732 0.99905223 0.042196471
vn 0.01068732 0.99905223 0.042196471
vn 0.0040547135 0.99946189 0.032550935
vn 0.0040547135 0.99946189 0.032550935
vn 0.0040547135 0.99946189 0.032550935
vn 0.0033931229 0.99909192 0.042471528
vn 0.0033931229 0.99909192 0.042471528
vn 0.0033931229 0.99909192 0.042471528
vn 0.0012947478 0.99931276 0.037043869
vn 0.0012947478 0.99931276 0.037043869
vn 0.0012947478 0.99931276 0.037043869
vn 0.00099856313 0.99927497 0.038059603
vn 0.00099856313 0.99927497 0.038059603
vn 0.00099856313 0.99927497 0.038059603
vn -0.18227835 0.46377924 -0.86699677
vn -0.18227835 0.46377924 -0.86699677
vn -0.18227835 0.46377924 -0.86699677
vn -0.048446827 0.39670834 -0.91666538
vn -0.048446827 0.39670834 -0.91666538
vn -0.048446827 0.39670834 -0.91666538
vn -0.23243804 0.47895864 -0.84650528
vn -0.23243804 0.47895864 -0.84650528
vn -0.23243804 0.47895864 -0.84650528
vn -0.0042950418 0.99946624 0.032385204
vn -0.0042950418 0.99946624 0.032385204
vn -0.0042950418 0.99946624 0.032385204
vn -0.0018768632 0.99923682 0.03901501
vn -0.0018768632 0.99923682 0.03901501
vn -0.0018768632 0.99923682 0.03901501
vn -0.0058680763 0.99937409 0.034887131
vn -0.0058680763 0.99937409 0.034887131
vn -0.0058680763 0.99937409 0.034887131
vn -0.0088961506 0.99932951 0.035515863
vn -0.0088961506 0.99932951 0.035515863
vn -0.0088961506 0.99932951 0.035515863
vn -0.008745173 0.99939221 0.033747427
vn -0.008745173 0.99939221 0.033747427
vn -0.008745173 0.99939221 0.033747427
vn -0.03651347 0.39552388 -0.91772962
vn -0.03651347 0.39552388 -0.91772962
vn -0.03651347 0.39552388 -0.91772962
vn -0.01270772 0.99958491 0.025856424
vn -0.01270772 0.99958491 0.025856424
vn -0.01270772 0.99958491 0.025856424
vn -0.10449825 0.46464673 -0.87930852
vn -0.10449825 0.46464673 -0.87930852
vn -0.10449825 0.46464673 -0.87930852
vn 0.10789924 0.33482298 -0.9360829
vn 0.10789924 0.33482298 -0.9360829
vn 0.10789924 0.33482298 -0.9360829
vn -0.011554203 0.99932754 0.034798246
vn -0.011554203 0.99932754 0.034798246
vn -0.011554203 0.99932754 0.034798246
vn -0.011313125 0.99934137 0.034477539
vn -0.011313125 0.99934137 0.034477539
vn -0.011313125 0.99934137 0.034477539
vn -0.017211249 0.99943703 0.028796736
vn -0.017211249 0.99943703 0.028796736
vn -0.017211249 0.99943703 0.028796736
vn -0.014460999 0.99925631 0.035745416
vn -0.014460999 0.99925631 0.035745416
vn -0.014460999 0.99925631 0.035745416
vn -0.014966516 0.99921888 0.036574464
vn -0.014966516 0.99921888 0.036574464
vn -0.014966516 0.99921888 0.036574464
vn -0.014213054 0.99960768 0.024131395
vn -0.014213054 0.99960768 0.024131395
vn -0.014213054 0.99960768 0.024131395
vn -0.019961111 0.99912673 0.03670568
vn -0.019961111 0.99912673 0.03670568
vn -0.019961111 0.99912673 0.03670568
vn 0.35779732 0.43023941 -0.82877928
vn 0.35779732 0.43023941 -0.82877928
vn 0.35779732 0.43023941 -0.82877928
vn -0.0174702 0.99931943 0.032489184
vn -0.0174702 0.99931943 0.032489184
vn -0.0174702 0.99931943 0.032489184
vn -0.020683503 0.99931967 0.030537838
vn -0.020683503 0.99931967 0.030537838
vn -0.020683503 0.99931967 0.030537838
vn 0.33547077 0.44028261 -0.83283293
vn 0.33547077 0.44028261 -0.83283293
vn 0.33547077 0.44028261 -0.83283293
vn -0.038284577 0.99833459 0.043155227
vn -0.038284577 0.99833459 0.043155227
vn -0.038284577 0.99833459 0.043155227
vn -0.041037526 0.99871433 0.02975874
vn -0.041037526 0.99871433 0.02975874
vn -0.041037526 0.99871433 0.02975874
vn -0.034473836 0.99884212 0.033554576
vn -0.034473836 0.99884212 0.033554576
vn -0.034473836 0.99884212 0.033554576
vn -0.04365585 0.99858981 0.030207677
vn -0.04365585 0.99858981 0.030207677
vn -0.04365585 0.99858981 0.030207677
vn -0.038860604 0.99846268 0.039523512
vn -0.038860604 0.99846268 0.039523512
vn -0.038860604 0.99846268 0.039523512
vn -0.034388803 0.99883878 0.033741977
vn -0.034388803 0.99883878 0.033741977
vn -0.034388803 0.99883878 0.033741977
vn -0.032788888 0.99923283 0.021415163
vn -0.032788888 0.99923283 0.021415163
vn -0.032788888 0.99923283 0.021415163
vn 0.4636727 0.48261017 -0.74303097
vn 0.4636727 0.48261017 -0.74303097
vn 0.4636727 0.48261017 -0.74303097
vn -0.036748219 0.99858761 0.038371388
vn -0.036748219 0.99858761 0.038371388
vn -0.036748219 0.99858761 0.038371388
vn -0.036658037 0.99865144 0.036761306
vn -0.036658037 0.99865144 0.036761306
vn -0.036658037 0.99865144 0.036761306
vn 0.49948424 0.47134799 -0.72687447
vn 0.49948424 0.47134799 -0.72687447
vn 0.49948424 0.47134799 -0.72687447
vn -0.32782221 0.66948712 -0.66657311
vn -0.32782221 0.66948712 -0.66657311
vn -0.32782221 0.66948712 -0.66657311
vn 0.44892424 0.49142015 -0.74630642
vn 0.44892424 0.49142015 -0.74630642
vn 0.44892424 0.49142015 -0.74630642
vn -0.033465385 0.99871153 0.038149729
vn -0.033465385 0.99871153 0.038149729
vn -0.033465385 0.99871153 0.038149729
vn 0.49994832 0.65481436 -0.56680685
vn 0.49994832 0.65481436 -0.56680685
vn 0.49994832 0.65481436 -0.56680685
vn -0.032689918 0.99863297 0.040787872
vn -0.032689918 0.99863297 0.040787872
vn -0.032689918 0.99863297 0.040787872
vn 0.28960124 0.60933536 -0.73813373
vn 0.28960124 0.60933536 -0.73813373
vn 0.28960124 0.60933536 -0.73813373
vt 0.4375 0.1875
vt 0.4375 0.1875
vt 0.4375 0.1875
vt 0.4375 0.1875
vt 0.4375 0.1875
vt 0.4375 0.1875
vt 0.0625 0.0625
vt 0.0625 0.0625
vt 0.0625 0.0625
vt 0.4375 0.1875
vt 0.4375 0.1875
vt 0.4375 0.1875
vt 0.4375 0.1875
vt 0.4375 0.1875
vt 0.4375 0.1875
vt 0.4375 0.1875
vt 0.4375 0.1875
vt 0.4375 0.1875
vt 0.4375 0.1875
vt 0.4375 0.1875
vt 0.4375 0.1875
vt 0.0625 0.0625
vt 0.0625 0.0625
vt 0.0625 0.0625
vt 0.0625 0.0625
vt 0.0625 0.0625
vt 0.0625 0.0625
vt 0.4375 0.1875
vt 0.4375 0.1875
vt 0.4375 0.1875
vt 0.4375 0.1875
vt 0.4375 0.1875
vt 0.4375 0.1875
vt 0.4375 0.1875
vt 0.4375 0.1875
vt 0.4375 0.1875
vt 0.4375 0.1875
vt 0.4375 0.1875
vt 0.4375 0.1875
vt 0.0625 0.0625
vt 0.0625 0.0625
vt 0.0625 0.0625
vt 0.4375 0.1875
vt 0.4375 0.1875
vt 0.4375 0.1875
vt 0.0625 0.0625
vt 0.0625 0.0625
vt 0.0625 0.0625
vt 0.4375 0.1875
vt 0.4375 0.1875
vt 0.4375 0.1875
vt 0.4375 0.1875
vt 0.4375 0.1875
vt 0.4375 0.1875
vt 0.0625 0.0625
vt 0.0625 0.0625
vt 0.0625 0.0625
vt 0.4375 0.1875
vt 0.4375 0.1875
vt 0.4375 0.1875
vt 0.4375 0.1875
vt 0.4375 0.1875
vt 0.4375 0.1875
vt 0.4375 0.1875
vt 0.4375 0.1875
vt 0.4375 0.1875
vt 0.4375 0.1875
vt 0.4375 0.1875
vt 0.4375 0.1875
vt 0.0625 0.0625
vt 0.0625 0.0625
vt 0.0625 0.0625
vt 0.4375 0.1875
vt 0.4375 0.1875
vt 0.4375 0.1875
vt 0.4375 0.1875
vt 0.4375 0.1875
vt 0.4375 0.1875
vt 0.0625 0.0625
vt 0.0625 0.0625
vt 0.0625 0.0625
vt 0.4375 0.1875
vt 0.4375 0.1875
vt 0.4375 0.1875
vt 0.4375 0.1875
vt 0.4375 0.1875
vt 0.4375 0.1875
vt 0.4375 0.1875
vt 0.4375 0.1875
vt 0.4375 0.1875
vt 0.0625 0.0625
vt 0.0625 0.0625
vt 0.0625 0.0625
vt 0.4375 0.1875
vt 0.4375 0.1875
vt 0.4375 0.1875
vt 0.4375 0.1875
vt 0.4375 0.1875
vt 0.4375 0.1875
vt 0.0625 0.0625
vt 0.0625 0.0625
vt 0.0625 0.0625
vt 0.0625 0.0625
vt 0.0625 0.0625
vt 0.0625 0.0625
vt 0.0625 0.0625
vt 0.0625 0.0625
vt 0.0625 0.0625
vt 0.4375 0.1875
vt 0.4375 0.1875
vt 0.4375 0.1875
vt 0.0625 0.0625
vt 0.0625 0.0625
vt 0.0625 0.0625
vt 0.0625 0.0625
vt 0.0625 0.0625
vt 0.0625 0.0625
vt 0.4375 0.1875
vt 0.4375 0.1875
vt 0.4375 0.1875
vt 0.4375 0.1875
vt 0.4375 0.1875
vt 0.4375 0.1875
vt 0.4375 0.1875
vt 0.4375 0.1875
vt 0.4375 0.1875
vt 0.4375 0.1875
vt 0.4375 0.1875
vt 0.4375 0.1875
vt 0.4375 0.1875
vt 0.4375 0.1875
vt 0.4375 0.1875
vt 0.4375 0.1875
vt 0.4375 0.1875
vt 0.4375 0.1875
vt 0.4375 0.1875
vt 0.4375 0.1875
vt 0.4375 0.1875
vt 0.4375 0.1875
vt 0.4375 0.1875
vt 0.4375 0.1875
vt 0.4375 0.1875
vt 0.4375 0.1875
vt 0.4375 0.1875
vt 0.4375 0.1875
vt 0.4375 0.1875
vt 0.4375 0.1875
g Island1
f 1/1/1 2/2/2 3/3/3
f 4/4/4 5/5/5 6/6/6
f 7/7/7 8/8/8 9/9/9
f 10/10/10 11/11/11 12/12/12
f 13/13/13 14/14/14 15/15/15
f 16/16/16 17/17/17 18/18/18
f 19/19/19 20/20/20 21/21/21
f 22/22/22 23/23/23 24/24/24
f 25/25/25 26/26/26 27/27/27
f 28/28/28 29/29/29 30/30/30
f 31/31/31 32/32/32 33/33/33
f 34/34/34 35/35/35 36/36/36
f 37/37/37 38/38/38 39/39/39
f 40/40/40 41/41/41 42/42/42
f 43/43/43 44/44/44 45/45/45
f 46/46/46 47/47/47 48/48/48
f 49/49/49 50/50/50 51/51/51
f 52/52/52 53/53/53 54/54/54
f 55/55/55 56/56/56 57/57/57
f 58/58/58 59/59/59 60/60/60
f 61/61/61 62/62/62 63/63/63
f 64/64/64 65/65/65 66/66/66
f 67/67/67 68/68/68 69/69/69
f 70/70/70 71/71/71 72/72/72
f 73/73/73 74/74/74 75/75/75
f 76/76/76 77/77/77 78/78/78
f 79/79/79 80/80/80 81/81/81
f 82/82/82 83/83/83 84/84/84
f 85/85/85 86/86/86 87/87/87
f 88/88/88 89/89/89 90/90/90
f 91/91/91 92/92/92 93/93/93
f 94/94/94 95/95/95 96/96/96
f 97/97/97 98/98/98 99/99/99
f 100/100/100 101/101/101 102/102/102
f 103/103/103 104/104/104 105/105/105
f 106/106/106 107/107/107 108/108/108
f 109/109/109 110/110/110 111/111/111
f 112/112/112 113/113/113 114/114/114
f 115/115/115 116/116/116 117/117/117
f 118/118/118 119/119/119 120/120/120
f 121/121/121 122/122/122 123/123/123
f 124/124/124 125/125/125 126/126/126
f 127/127/127 128/128/128 129/129/129
f 130/130/130 131/131/131 132/132/132
f 133/133/133 134/134/134 135/135/135
f 136/136/136 137/137/137 138/138/138
f 139/139/139 140/140/140 141/141/141
f 142/142/142 143/143/143 144/144/144
f 145/145/145 146/146/146 147/147/147
