# OBJ File exported by EasyPolyMap
v -370.09653 43.021873 122.58054
v -354.98795 44.867172 126.70618
v -363.26218 -10 114.87768
v -370.09653 43.021873 122.58054
v -361.09882 44.370872 127.73039
v -354.98795 44.867172 126.70618
v -370.09653 43.021873 122.58054
v -367.27249 43.418159 126.00896
v -361.09882 44.370872 127.73039
v -363.26218 -10 114.87768
v -354.98795 44.867172 126.70618
v -356.50217 -10 116.9157
v -356.50217 -10 116.9157
v -354.98795 44.867172 126.70618
v -348.39795 -10 121.19498
v -346.98825 -10 121.7147
v -347.11514 46.147247 133.71451
v -344.00769 46.479015 135.00121
v -346.98825 -10 121.7147
v -344.00769 46.479015 135.00121
v -328.92358 -10 130.00455
vn 0.24024147 0.16981401 -0.95574439
vn 0.24024147 0.16981401 -0.95574439
vn 0.24024147 0.16981401 -0.95574439
vn -0.095920414 0.99112505 -0.092034124
vn -0.095920414 0.99112505 -0.092034124
vn -0.095920414 0.99112505 -0.092034124
vn -0.15651967 0.98756421 0.014776257
vn -0.15651967 0.98756421 0.014776257
vn -0.15651967 0.98756421 0.014776257
vn 0.28489554 0.16075976 -0.94498193
vn 0.28489554 0.16075976 -0.94498193
vn 0.28489554 0.16075976 -0.94498193
vn 0.46210694 0.14340867 -0.87515205
vn 0.46210694 0.14340867 -0.87515205
vn 0.46210694 0.14340867 -0.87515205
vn 0.35721517 0.19598302 -0.91322953
vn 0.35721517 0.19598302 -0.91322953
vn 0.35721517 0.19598302 -0.91322953
vn 0.40961307 0.18836495 -0.89260054
vn 0.40961307 0.18836495 -0.89260054
vn 0.40961307 0.18836495 -0.89260054
vt 0.4375 0.1875
vt 0.4375 0.1875
vt 0.4375 0.1875
vt 0.4375 0.1875
vt 0.4375 0.1875
vt 0.4375 0.1875
vt 0.4375 0.1875
vt 0.4375 0.1875
vt 0.4375 0.1875
vt 0.4375 0.1875
vt 0.4375 0.1875
vt 0.4375 0.1875
vt 0.4375 0.1875
vt 0.4375 0.1875
vt 0.4375 0.1875
vt 0.4375 0.1875
vt 0.4375 0.1875
vt 0.4375 0.1875
vt 0.4375 0.1875
vt 0.4375 0.1875
vt 0.4375 0.1875
g Island4
f 1/1/1 2/2/2 3/3/3
f 4/4/4 5/5/5 6/6/6
f 7/7/7 8/8/8 9/9/9
f 10/10/10 11/11/11 12/12/12
f 13/13/13 14/14/14 15/15/15
f 16/16/16 17/17/17 18/18/18
f 19/19/19 20/20/20 21/21/21
