# OBJ File exported by EasyPolyMap
v -270.09177 -10 378.04623
v -251.65503 16.903925 375.82983
v -254.59526 16.128048 371.45618
v -270.09177 -10 378.04623
v -256.08081 -10 387.65765
v -251.65503 16.903925 375.82983
v -256.08081 -10 387.65765
v -250.30478 -10 387.14417
v -251.65503 16.903925 375.82983
v -250.30478 -10 387.14417
v -242.94894 18.915455 382.4234
v -251.65503 16.903925 375.82983
v -251.65503 16.903925 375.82983
v -242.94894 18.915455 382.4234
v -245.0378 18.489079 377.3735
v -250.30478 -10 387.14417
v -248.15048 -10 393.64578
v -235.1424 20.728065 386.67572
v -251.65503 16.903925 375.82983
v -246.83609 18.084007 375.85712
v -250.56377 17.117838 370.91141
v -251.65503 16.903925 375.82983
v -245.0378 18.489079 377.3735
v -246.83609 18.084007 375.85712
v -250.30478 -10 387.14417
v -240.91264 19.387583 383.46909
v -242.94894 18.915455 382.4234
v -250.30478 -10 387.14417
v -235.1424 20.728065 386.67572
v -240.91264 19.387583 383.46909
vn -0.73973083 0.53999919 0.40149605
vn -0.73973083 0.53999919 0.40149605
vn -0.73973083 0.53999919 0.40149605
vn -0.51477832 0.41458815 0.75041324
vn -0.51477832 0.41458815 0.75041324
vn -0.51477832 0.41458815 0.75041324
vn 0.081544653 0.38984382 0.91726351
vn 0.081544653 0.38984382 0.91726351
vn 0.081544653 0.38984382 0.91726351
vn -0.61995524 0.27753085 0.73391557
vn -0.61995524 0.27753085 0.73391557
vn -0.61995524 0.27753085 0.73391557
vn -0.23640473 0.97152686 0.015758416
vn -0.23640473 0.97152686 0.015758416
vn -0.23640473 0.97152686 0.015758416
vn -0.85803485 0.42772093 0.28430799
vn -0.85803485 0.42772093 0.28430799
vn -0.85803485 0.42772093 0.28430799
vn -0.23778683 0.97126037 -0.010516114
vn -0.23778683 0.97126037 -0.010516114
vn -0.23778683 0.97126037 -0.010516114
vn -0.23791611 0.97101903 0.02275884
vn -0.23791611 0.97101903 0.02275884
vn -0.23791611 0.97101903 0.02275884
vn -0.48813257 0.26018673 0.83308429
vn -0.48813257 0.26018673 0.83308429
vn -0.48813257 0.26018673 0.83308429
vn -0.51474535 0.26641777 0.81489801
vn -0.51474535 0.26641777 0.81489801
vn -0.51474535 0.26641777 0.81489801
vt 0.4375 0.1875
vt 0.4375 0.1875
vt 0.4375 0.1875
vt 0.4375 0.1875
vt 0.4375 0.1875
vt 0.4375 0.1875
vt 0.4375 0.1875
vt 0.4375 0.1875
vt 0.4375 0.1875
vt 0.4375 0.1875
vt 0.4375 0.1875
vt 0.4375 0.1875
vt 0.4375 0.1875
vt 0.4375 0.1875
vt 0.4375 0.1875
vt 0.4375 0.1875
vt 0.4375 0.1875
vt 0.4375 0.1875
vt 0.4375 0.1875
vt 0.4375 0.1875
vt 0.4375 0.1875
vt 0.4375 0.1875
vt 0.4375 0.1875
vt 0.4375 0.1875
vt 0.4375 0.1875
vt 0.4375 0.1875
vt 0.4375 0.1875
vt 0.4375 0.1875
vt 0.4375 0.1875
vt 0.4375 0.1875
g SpawnIslandAddOn
f 1/1/1 2/2/2 3/3/3
f 4/4/4 5/5/5 6/6/6
f 7/7/7 8/8/8 9/9/9
f 10/10/10 11/11/11 12/12/12
f 13/13/13 14/14/14 15/15/15
f 16/16/16 17/17/17 18/18/18
f 19/19/19 20/20/20 21/21/21
f 22/22/22 23/23/23 24/24/24
f 25/25/25 26/26/26 27/27/27
f 28/28/28 29/29/29 30/30/30
