# OBJ File exported by EasyPolyMap
v -249.69516 -10 113.54903
v -241.92447 17.422014 125.67183
v -237.90047 17.153063 125.53687
v -249.69516 -10 113.54903
v -237.90047 17.153063 125.53687
v -232.07257 -10 113.72412
v -232.07257 -10 113.72412
v -231.40742 16.932455 125.48428
v -218.42726 -10 117.81203
v -218.42726 -10 117.81203
v -216.01056 16.263336 129.408
v -214.69278 16.294899 129.29745
v -218.42726 -10 117.81203
v -214.69278 16.294899 129.29745
v -211.81032 -10 119.43903
v -211.81032 -10 119.43903
v -209.38095 16.188288 129.94127
v -204.54413 15.963267 131.17952
v -211.81032 -10 119.43903
v -204.54413 15.963267 131.17952
v -202.30728 -10 117.20873
v -202.30728 -10 117.20873
v -194.71971 15.687335 131.85733
v -193.69255 -10 116.6847
v -193.69255 -10 116.6847
v -194.71971 15.687335 131.85733
v -184.37308 -10 118.36646
vn -0.0035804338 0.40518004 -0.91422987
vn -0.0035804338 0.40518004 -0.91422987
vn -0.0035804338 0.40518004 -0.91422987
vn 0.0091034677 0.40055278 -0.91622853
vn 0.0091034677 0.40055278 -0.91622853
vn 0.0091034677 0.40055278 -0.91622853
vn 0.26541844 0.38030219 -0.88595891
vn 0.26541844 0.38030219 -0.88595891
vn 0.26541844 0.38030219 -0.88595891
vn -0.086008459 0.40902472 -0.90846097
vn -0.086008459 0.40902472 -0.90846097
vn -0.086008459 0.40902472 -0.90846097
vn 0.22243512 0.3635456 -0.90463102
vn 0.22243512 0.3635456 -0.90463102
vn 0.22243512 0.3635456 -0.90463102
vn 0.24801433 0.34067643 -0.90687835
vn 0.24801433 0.34067643 -0.90687835
vn 0.24801433 0.34067643 -0.90687835
vn -0.20402122 0.45019636 -0.86930919
vn -0.20402122 0.45019636 -0.86930919
vn -0.20402122 0.45019636 -0.86930919
vn -0.052359432 0.5063234 -0.86075258
vn -0.052359432 0.5063234 -0.86075258
vn -0.052359432 0.5063234 -0.86075258
vn 0.15305932 0.50711173 -0.84818071
vn 0.15305932 0.50711173 -0.84818071
vn 0.15305932 0.50711173 -0.84818071
vt 0.4375 0.1875
vt 0.4375 0.1875
vt 0.4375 0.1875
vt 0.4375 0.1875
vt 0.4375 0.1875
vt 0.4375 0.1875
vt 0.4375 0.1875
vt 0.4375 0.1875
vt 0.4375 0.1875
vt 0.4375 0.1875
vt 0.4375 0.1875
vt 0.4375 0.1875
vt 0.4375 0.1875
vt 0.4375 0.1875
vt 0.4375 0.1875
vt 0.4375 0.1875
vt 0.4375 0.1875
vt 0.4375 0.1875
vt 0.4375 0.1875
vt 0.4375 0.1875
vt 0.4375 0.1875
vt 0.4375 0.1875
vt 0.4375 0.1875
vt 0.4375 0.1875
vt 0.4375 0.1875
vt 0.4375 0.1875
vt 0.4375 0.1875
g SpawnIslandAddOn
f 1/1/1 2/2/2 3/3/3
f 4/4/4 5/5/5 6/6/6
f 7/7/7 8/8/8 9/9/9
f 10/10/10 11/11/11 12/12/12
f 13/13/13 14/14/14 15/15/15
f 16/16/16 17/17/17 18/18/18
f 19/19/19 20/20/20 21/21/21
f 22/22/22 23/23/23 24/24/24
f 25/25/25 26/26/26 27/27/27
