# OBJ File exported by EasyPolyMap
v -371.5517 -10 389.33725
v -369.83466 7.3372884 377.82849
v -370.86273 7.3372884 377.92636
v -371.5517 -10 389.33725
v -366.6918 7.3372884 377.76736
v -369.83466 7.3372884 377.82849
v -370.86273 7.3372884 377.92636
v -369.83466 7.3372884 377.82849
v -368.43082 7.4457555 372.79971
v -371.5517 -10 389.33725
v -362.57651 7.0645509 377.26385
v -366.6918 7.3372884 377.76736
v -371.5517 -10 389.33725
v -357.80203 7.5748501 381.46439
v -362.57651 7.0645509 377.26385
v -371.5517 -10 389.33725
v -355.34683 -10 390.77637
v -357.80203 7.5748501 381.46439
v -369.83466 7.3372884 377.82849
v -366.6918 7.3372884 377.76736
v -368.43082 7.4457555 372.79971
v -366.6918 7.3372884 377.76736
v -362.57651 7.0645509 377.26385
v -363.42786 7.4457555 371.69196
v -362.57651 7.0645509 377.26385
v -357.80203 7.5748501 381.46439
v -356.38712 7.0645509 377.60867
v -362.57651 7.0645509 377.26385
v -356.38712 7.0645509 377.60867
v -357.07507 7.4457555 371.35452
v -357.80203 7.5748501 381.46439
v -355.34683 -10 390.77637
v -354.1438 7.5748501 381.74347
v -357.80203 7.5748501 381.46439
v -354.1438 7.5748501 381.74347
v -356.38712 7.0645509 377.60867
v -356.38712 7.0645509 377.60867
v -354.1438 7.5748501 381.74347
v -354.32053 7.1695719 377.25467
v -354.32053 7.1695719 377.25467
v -349.57022 7.4457555 367.94824
v -351.20096 7.4457555 367.60614
v -354.32053 7.1695719 377.25467
v -354.1438 7.5748501 381.74347
v -349.74475 7.1695719 377.60284
v -354.32053 7.1695719 377.25467
v -349.74475 7.1695719 377.60284
v -349.57022 7.4457555 367.94824
v -355.34683 -10 390.77637
v -352.20926 -10 391.53177
v -354.1438 7.5748501 381.74347
v -354.1438 7.5748501 381.74347
v -352.20926 -10 391.53177
v -345.82739 7.1073689 378.45578
v -354.1438 7.5748501 381.74347
v -345.82739 7.1073689 378.45578
v -349.74475 7.1695719 377.60284
v -352.20926 -10 391.53177
v -343.51352 7.2123899 378.42029
v -345.82739 7.1073689 378.45578
v -352.20926 -10 391.53177
v -344.48611 -10 400.28995
v -343.51352 7.2123899 378.42029
v -349.74475 7.1695719 377.60284
v -345.82739 7.1073689 378.45578
v -346.38895 7.1695719 367.71924
v -343.51352 7.2123899 378.42029
v -344.48611 -10 400.28995
v -339.13998 7.2123899 378.71051
v -345.82739 7.1073689 378.45578
v -343.51352 7.2123899 378.42029
v -338.45282 7.2123899 371.29486
v -344.48611 -10 400.28995
v -335.31976 7.2123899 378.15152
v -339.13998 7.2123899 378.71051
v -344.48611 -10 400.28995
v -328.86478 -10 396.20151
v -335.31976 7.2123899 378.15152
v -343.51352 7.2123899 378.42029
v -339.13998 7.2123899 378.71051
v -338.45282 7.2123899 371.29486
v -335.31976 7.2123899 378.15152
v -328.86478 -10 396.20151
v -330.84964 6.8876114 376.95148
v -330.84964 6.8876114 376.95148
v -328.86478 -10 396.20151
v -320.45526 6.6115332 378.93484
v -330.84964 6.8876114 376.95148
v -320.45526 6.6115332 378.93484
v -323.21814 6.6115332 374.40753
v -328.86478 -10 396.20151
v -317.97256 -10 397.84625
v -320.45526 6.6115332 378.93484
v -320.45526 6.6115332 378.93484
v -317.97256 -10 397.84625
v -313.86227 -10 390.71207
v -320.45526 6.6115332 378.93484
v -313.86227 -10 390.71207
v -316.14374 6.5983343 376.97531
v -320.45526 6.6115332 378.93484
v -316.14374 6.5983343 376.97531
v -318.22836 5.9057279 373.34372
v -316.14374 6.5983343 376.97531
v -313.86227 -10 390.71207
v -312.13446 5.8208599 376.0545
v -313.86227 -10 390.71207
v -308.35004 -10 388.92447
v -312.13446 5.8208599 376.0545
v -312.13446 5.8208599 376.0545
v -308.11765 6.475296 374.55371
v -309.62808 6.475296 370.00397
v -312.13446 5.8208599 376.0545
v -308.35004 -10 388.92447
v -308.11765 6.475296 374.55371
vn 0.079405546 0.54583752 0.83412004
vn 0.079405546 0.54583752 0.83412004
vn 0.079405546 0.54583752 0.83412004
vn 0.016216641 0.55186647 0.83377475
vn 0.016216641 0.55186647 0.83377475
vn 0.016216641 0.55186647 0.83377475
vn 0.0021088682 0.9997524 0.022152651
vn 0.0021088682 0.9997524 0.022152651
vn 0.0021088682 0.9997524 0.022152651
vn 0.1375789 0.52283919 0.84125572
vn 0.1375789 0.52283919 0.84125572
vn 0.1375789 0.52283919 0.84125572
vn -0.53635681 0.65696251 0.52983159
vn -0.53635681 0.65696251 0.52983159
vn -0.53635681 0.65696251 0.52983159
vn -0.078629985 0.45813963 0.88539565
vn -0.078629985 0.45813963 0.88539565
vn -0.078629985 0.45813963 0.88539565
vn 0.0004217012 0.9997648 0.021681925
vn 0.0004217012 0.9997648 0.021681925
vn 0.0004217012 0.9997648 0.021681925
vn 0.072960332 0.99570614 0.056973945
vn 0.072960332 0.99570614 0.056973945
vn 0.072960332 0.99570614 0.056973945
vn 0.0071653854 0.9916684 -0.12861674
vn 0.0071653854 0.9916684 -0.12861674
vn 0.0071653854 0.9916684 -0.12861674
vn -0.0034102309 0.99811888 0.061212726
vn -0.0034102309 0.99811888 0.061212726
vn -0.0034102309 0.99811888 0.061212726
vn -0.06755273 0.45973381 0.88548374
vn -0.06755273 0.45973381 0.88548374
vn -0.06755273 0.45973381 0.88548374
vn 0.0097409422 0.99176699 -0.12768464
vn 0.0097409422 0.99176699 -0.12768464
vn 0.0097409422 0.99176699 -0.12768464
vn -0.06544809 0.99404103 -0.087171786
vn -0.06544809 0.99404103 -0.087171786
vn -0.06544809 0.99404103 -0.087171786
vn -0.00562141 0.99962509 0.026796177
vn -0.00562141 0.99962509 0.026796177
vn -0.00562141 0.99962509 0.026796177
vn 0.0068623875 0.99590123 -0.090186656
vn 0.0068623875 0.99590123 -0.090186656
vn 0.0068623875 0.99590123 -0.090186656
vn -0.0021728079 0.99958986 0.028555408
vn -0.0021728079 0.99958986 0.028555408
vn -0.0021728079 0.99958986 0.028555408
vn -0.20803604 0.45834994 0.86408114
vn -0.20803604 0.45834994 0.86408114
vn -0.20803604 0.45834994 0.86408114
vn 0.34488556 0.4854092 0.8033877
vn 0.34488556 0.4854092 0.8033877
vn 0.34488556 0.4854092 0.8033877
vn 0.030124584 0.99738997 -0.065618336
vn 0.030124584 0.99738997 -0.065618336
vn 0.030124584 0.99738997 -0.065618336
vn -0.015583877 0.61086023 0.79158503
vn -0.015583877 0.61086023 0.79158503
vn -0.015583877 0.61086023 0.79158503
vn -0.56229812 0.66178352 0.49584618
vn -0.56229812 0.66178352 0.49584618
vn -0.56229812 0.66178352 0.49584618
vn 0.014783924 0.99987811 0.0050196215
vn 0.014783924 0.99987811 0.0050196215
vn 0.014783924 0.99987811 0.0050196215
vn -0.040931683 0.78603566 0.61682451
vn -0.040931683 0.78603566 0.61682451
vn -0.040931683 0.78603566 0.61682451
vn -0.045814928 0.99841994 -0.032539181
vn -0.045814928 0.99841994 -0.032539181
vn -0.045814928 0.99841994 -0.032539181
vn 0.092891067 0.76704627 0.63483167
vn 0.092891067 0.76704627 0.63483167
vn 0.092891067 0.76704627 0.63483167
vn 0.16951787 0.74279463 0.64770335
vn 0.16951787 0.74279463 0.64770335
vn 0.16951787 0.74279463 0.64770335
vn 0 1 0
vn 0 1 0
vn 0 1 0
vn 0.22312143 0.74406695 0.62974697
vn 0.22312143 0.74406695 0.62974697
vn 0.22312143 0.74406695 0.62974697
vn -0.10659207 0.74197066 0.66190457
vn -0.10659207 0.74197066 0.66190457
vn -0.10659207 0.74197066 0.66190457
vn 0.030042186 0.99938047 -0.018333815
vn 0.030042186 0.99938047 -0.018333815
vn 0.030042186 0.99938047 -0.018333815
vn -0.10026778 0.74096435 0.66401666
vn -0.10026778 0.74096435 0.66401666
vn -0.10026778 0.74096435 0.66401666
vn 0.71057087 0.57226759 0.40938836
vn 0.71057087 0.57226759 0.40938836
vn 0.71057087 0.57226759 0.40938836
vn 0.32314262 0.62933421 0.70676535
vn 0.32314262 0.62933421 0.70676535
vn 0.32314262 0.62933421 0.70676535
vn -0.065416358 0.98643136 -0.15057863
vn -0.065416358 0.98643136 -0.15057863
vn -0.065416358 0.98643136 -0.15057863
vn 0.28779963 0.63376671 0.71799111
vn 0.28779963 0.63376671 0.71799111
vn 0.28779963 0.63376671 0.71799111
vn 0.23532212 0.64658391 0.72563946
vn 0.23532212 0.64658391 0.72563946
vn 0.23532212 0.64658391 0.72563946
vn -0.14328401 0.98853785 0.047567837
vn -0.14328401 0.98853785 0.047567837
vn -0.14328401 0.98853785 0.047567837
vn 0.1725287 0.6460945 0.74350232
vn 0.1725287 0.6460945 0.74350232
vn 0.1725287 0.6460945 0.74350232
vt 0.4375 0.1875
vt 0.4375 0.1875
vt 0.4375 0.1875
vt 0.4375 0.1875
vt 0.4375 0.1875
vt 0.4375 0.1875
vt 0.4375 0.1875
vt 0.4375 0.1875
vt 0.4375 0.1875
vt 0.4375 0.1875
vt 0.4375 0.1875
vt 0.4375 0.1875
vt 0.4375 0.1875
vt 0.4375 0.1875
vt 0.4375 0.1875
vt 0.4375 0.1875
vt 0.4375 0.1875
vt 0.4375 0.1875
vt 0.4375 0.1875
vt 0.4375 0.1875
vt 0.4375 0.1875
vt 0.4375 0.1875
vt 0.4375 0.1875
vt 0.4375 0.1875
vt 0.4375 0.1875
vt 0.4375 0.1875
vt 0.4375 0.1875
vt 0.4375 0.1875
vt 0.4375 0.1875
vt 0.4375 0.1875
vt 0.4375 0.1875
vt 0.4375 0.1875
vt 0.4375 0.1875
vt 0.4375 0.1875
vt 0.4375 0.1875
vt 0.4375 0.1875
vt 0.4375 0.1875
vt 0.4375 0.1875
vt 0.4375 0.1875
vt 0.0625 0.0625
vt 0.0625 0.0625
vt 0.0625 0.0625
vt 0.4375 0.1875
vt 0.4375 0.1875
vt 0.4375 0.1875
vt 0.0625 0.0625
vt 0.0625 0.0625
vt 0.0625 0.0625
vt 0.4375 0.1875
vt 0.4375 0.1875
vt 0.4375 0.1875
vt 0.4375 0.1875
vt 0.4375 0.1875
vt 0.4375 0.1875
vt 0.4375 0.1875
vt 0.4375 0.1875
vt 0.4375 0.1875
vt 0.4375 0.1875
vt 0.4375 0.1875
vt 0.4375 0.1875
vt 0.4375 0.1875
vt 0.4375 0.1875
vt 0.4375 0.1875
vt 0.4375 0.1875
vt 0.4375 0.1875
vt 0.4375 0.1875
vt 0.4375 0.1875
vt 0.4375 0.1875
vt 0.4375 0.1875
vt 0.4375 0.1875
vt 0.4375 0.1875
vt 0.4375 0.1875
vt 0.4375 0.1875
vt 0.4375 0.1875
vt 0.4375 0.1875
vt 0.4375 0.1875
vt 0.4375 0.1875
vt 0.4375 0.1875
vt 0.4375 0.1875
vt 0.4375 0.1875
vt 0.4375 0.1875
vt 0.4375 0.1875
vt 0.4375 0.1875
vt 0.4375 0.1875
vt 0.4375 0.1875
vt 0.4375 0.1875
vt 0.4375 0.1875
vt 0.4375 0.1875
vt 0.4375 0.1875
vt 0.4375 0.1875
vt 0.4375 0.1875
vt 0.4375 0.1875
vt 0.4375 0.1875
vt 0.4375 0.1875
vt 0.4375 0.1875
vt 0.4375 0.1875
vt 0.4375 0.1875
vt 0.4375 0.1875
vt 0.4375 0.1875
vt 0.4375 0.1875
vt 0.4375 0.1875
vt 0.4375 0.1875
vt 0.4375 0.1875
vt 0.4375 0.1875
vt 0.4375 0.1875
vt 0.4375 0.1875
vt 0.4375 0.1875
vt 0.4375 0.1875
vt 0.4375 0.1875
vt 0.4375 0.1875
vt 0.4375 0.1875
vt 0.4375 0.1875
vt 0.4375 0.1875
vt 0.4375 0.1875
g Island3
f 1/1/1 2/2/2 3/3/3
f 4/4/4 5/5/5 6/6/6
f 7/7/7 8/8/8 9/9/9
f 10/10/10 11/11/11 12/12/12
f 13/13/13 14/14/14 15/15/15
f 16/16/16 17/17/17 18/18/18
f 19/19/19 20/20/20 21/21/21
f 22/22/22 23/23/23 24/24/24
f 25/25/25 26/26/26 27/27/27
f 28/28/28 29/29/29 30/30/30
f 31/31/31 32/32/32 33/33/33
f 34/34/34 35/35/35 36/36/36
f 37/37/37 38/38/38 39/39/39
f 40/40/40 41/41/41 42/42/42
f 43/43/43 44/44/44 45/45/45
f 46/46/46 47/47/47 48/48/48
f 49/49/49 50/50/50 51/51/51
f 52/52/52 53/53/53 54/54/54
f 55/55/55 56/56/56 57/57/57
f 58/58/58 59/59/59 60/60/60
f 61/61/61 62/62/62 63/63/63
f 64/64/64 65/65/65 66/66/66
f 67/67/67 68/68/68 69/69/69
f 70/70/70 71/71/71 72/72/72
f 73/73/73 74/74/74 75/75/75
f 76/76/76 77/77/77 78/78/78
f 79/79/79 80/80/80 81/81/81
f 82/82/82 83/83/83 84/84/84
f 85/85/85 86/86/86 87/87/87
f 88/88/88 89/89/89 90/90/90
f 91/91/91 92/92/92 93/93/93
f 94/94/94 95/95/95 96/96/96
f 97/97/97 98/98/98 99/99/99
f 100/100/100 101/101/101 102/102/102
f 103/103/103 104/104/104 105/105/105
f 106/106/106 107/107/107 108/108/108
f 109/109/109 110/110/110 111/111/111
f 112/112/112 113/113/113 114/114/114
